<svg xmlns="http://www.w3.org/2000/svg" version="1.1" xmlns:xlink="http://www.w3.org/1999/xlink" xmlns:svgjs="http://svgjs.dev/svgjs" width="1000" height="1125" viewBox="0 0 1000 1125"><g transform="matrix(1,0,0,1,0,0)"><svg viewBox="0 0 320 360" data-background-color="#ffffff" preserveAspectRatio="xMidYMid meet" height="1125" width="1000" xmlns="http://www.w3.org/2000/svg" xmlns:xlink="http://www.w3.org/1999/xlink"><g id="tight-bounds" transform="matrix(1,0,0,1,0,0)"><svg viewBox="0 0 320 360" height="360" width="320"><g><svg></svg></g><g><svg viewBox="0 0 320 360" height="360" width="320"><g><path xmlns="http://www.w3.org/2000/svg" d="M320 187.111c0-45.764-20.238-86.866-52.203-114.908-28.043-31.964-69.145-52.203-114.908-52.203-84.302 0-152.889 68.587-152.889 152.889 0 45.753 20.231 86.848 52.185 114.891 28.043 31.975 69.152 52.22 114.926 52.22 0.299 0 0.59-0.021 0.889-0.021 0.299 0 0.59 0.021 0.889 0.021 83.456 0 151.111-67.655 151.111-151.111 0-0.299-0.021-0.59-0.021-0.889 0-0.299 0.021-0.59 0.021-0.889zM59.833 263.097c-15.093-21.255-24.071-47.143-24.256-75.097 0.48-72.928 59.492-131.943 132.423-132.423 27.954 0.185 53.845 9.163 75.097 24.256 24.366 23.627 39.57 56.64 39.57 93.056 0 71.559-58.219 129.778-129.778 129.778-36.416 0-69.429-15.204-93.056-39.57zM3.556 172.889c0-82.343 66.99-149.333 149.333-149.333 35.051 0 67.292 12.167 92.8 32.462-22.98-13.824-49.863-21.796-78.578-21.796-84.302 0-152.889 68.587-152.889 152.889 0 28.708 7.968 55.584 21.785 78.56-20.288-25.5-32.452-57.739-32.451-92.782zM167.111 318.667c-35.84 0-68.363-14.418-92.107-37.743 21.952 15.89 48.864 25.298 77.885 25.298 73.522 0 133.333-59.812 133.333-133.333 0-29.02-9.408-55.932-25.298-77.885 23.324 23.744 37.742 56.267 37.743 92.107 0 72.54-59.015 131.556-131.556 131.556z" fill="#636365" fill-rule="nonzero" stroke="none" stroke-width="1" stroke-linecap="butt" stroke-linejoin="miter" stroke-miterlimit="10" stroke-dasharray="" stroke-dashoffset="0" font-family="none" font-weight="none" font-size="none" text-anchor="none" style="mix-blend-mode: normal" data-fill-palette-color="tertiary"></path></g><g transform="matrix(1,0,0,1,64,123.5866749731174)"><svg viewBox="0 0 192 112.82665005376522" height="112.82665005376522" width="192"><g><svg viewBox="0 0 192 112.82665005376522" height="112.82665005376522" width="192"><g transform="matrix(1,0,0,1,0,83.50447432154765)"><svg viewBox="0 0 192 29.322175732217573" height="29.322175732217573" width="192"><g id="textblocktransform"><svg viewBox="0 0 192 29.322175732217573" height="29.322175732217573" width="192" id="textblock"><g><svg viewBox="0 0 192 29.322175732217573" height="29.322175732217573" width="192"><g transform="matrix(1,0,0,1,0,0)"><svg width="192" viewBox="2.5 -35.75 238.99000549316406 36.5" height="29.322175732217573" data-palette-color="#636365"><path d="M2.5 0L2.5-0.75 5.5-1.5 5.5-33.5 2.5-34.25 2.5-35 16-35Q23.6-35 27.18-32.58 30.75-30.15 30.75-26.25L30.75-26.25Q30.75-23.55 29.2-21.9 27.65-20.25 25.25-19.45L25.25-19.45Q22.7-18.55 19.75-18.5L19.75-18.5 19.75-18.25Q23.4-18.1 26.1-17.15L26.1-17.15Q28.85-16.25 30.68-14.35 32.5-12.45 32.5-9.5L32.5-9.5Q32.5-5.05 28.85-2.53 25.2 0 17 0L17 0 2.5 0ZM13.75-19L16-19Q17.65-19 19.07-19.93 20.5-20.85 21.38-22.53 22.25-24.2 22.25-26.25L22.25-26.25Q22.25-28.45 21.38-30.15 20.5-31.85 19.07-32.8 17.65-33.75 16-33.75L16-33.75 13.75-33.75 13.75-19ZM13.75-1.25L17-1.25Q20.1-1.25 22.05-3.45 24-5.65 24-9.5L24-9.5Q24-13.35 22.05-15.55 20.1-17.75 17-17.75L17-17.75 13.75-17.75 13.75-1.25ZM52.5 0.75Q47.6 0.75 43.92-1.38 40.25-3.5 38.25-7.6 36.25-11.7 36.25-17.5L36.25-17.5Q36.25-23.3 38.25-27.4 40.25-31.5 43.92-33.63 47.6-35.75 52.5-35.75L52.5-35.75Q57.4-35.75 61.07-33.63 64.75-31.5 66.75-27.4 68.75-23.3 68.75-17.5L68.75-17.5Q68.75-11.7 66.75-7.6 64.75-3.5 61.07-1.38 57.4 0.75 52.5 0.75L52.5 0.75ZM52.5-0.25Q54.45-0.25 56.12-1.9 57.8-3.55 58.9-7.4 60-11.25 60-17.5L60-17.5Q60-23.75 58.9-27.6 57.8-31.45 56.12-33.1 54.45-34.75 52.5-34.75L52.5-34.75Q50.55-34.75 48.87-33.1 47.2-31.45 46.1-27.6 45-23.75 45-17.5L45-17.5Q45-11.25 46.1-7.4 47.2-3.55 48.87-1.9 50.55-0.25 52.5-0.25L52.5-0.25ZM89.5 0.75Q84.59 0.75 80.92-1.38 77.25-3.5 75.25-7.6 73.25-11.7 73.25-17.5L73.25-17.5Q73.25-23.3 75.25-27.4 77.25-31.5 80.92-33.63 84.59-35.75 89.5-35.75L89.5-35.75Q94.4-35.75 98.07-33.63 101.75-31.5 103.75-27.4 105.75-23.3 105.75-17.5L105.75-17.5Q105.75-11.7 103.75-7.6 101.75-3.5 98.07-1.38 94.4 0.75 89.5 0.75L89.5 0.75ZM89.5-0.25Q91.45-0.25 93.12-1.9 94.8-3.55 95.9-7.4 97-11.25 97-17.5L97-17.5Q97-23.75 95.9-27.6 94.8-31.45 93.12-33.1 91.45-34.75 89.5-34.75L89.5-34.75Q87.55-34.75 85.87-33.1 84.2-31.45 83.09-27.6 82-23.75 82-17.5L82-17.5Q82-11.25 83.09-7.4 84.2-3.55 85.87-1.9 87.55-0.25 89.5-0.25L89.5-0.25ZM110.49 0L110.49-0.75 113.49-1.5 113.49-33.5 110.49-34.25 110.49-35 124.74-35 124.74-34.25 121.74-33.5 121.74-17.8 133.99-32.75 130.24-34.25 130.24-35 139.74-35 139.74-34.25 135.74-32.75 126.99-22 140.49-1.5 142.99-0.75 142.99 0 135.99 0Q133.74 0 132.17-1.13 130.59-2.25 129.24-4.25L129.24-4.25 121.74-15.75 121.74-1.5 124.74-0.75 124.74 0 110.49 0ZM141.49 0L141.49-0.75 145.49-2.25 159.24-35.5 160.74-35.5 174.99-1.5 177.49-0.75 177.49 0 171.49 0Q168.89 0 167.24-1.18 165.59-2.35 164.79-4.25L164.79-4.25 162.24-10.25 150.29-10.25 146.99-2.25 150.74-0.75 150.74 0 141.49 0ZM156.24-24.65L150.79-11.5 161.74-11.5 156.24-24.65ZM178.99 0L178.99-0.75 181.99-1.5 181.99-33.5 178.99-34.25 178.99-35 192.24-35Q200.74-35 204.49-32.43 208.24-29.85 208.24-25.25L208.24-25.25Q208.24-22.15 206.59-20.23 204.94-18.3 202.34-17.35L202.34-17.35Q199.59-16.3 196.49-16.25L196.49-16.25 196.49-16Q198.34-15.9 199.74-15.45L199.74-15.45Q203.24-14.35 204.49-11.5L204.49-11.5 208.99-1.5 211.49-0.75 211.49 0 204.49 0Q200.39 0 198.49-4.25L198.49-4.25 193.49-15.5 190.24-15.5 190.24-1.5 193.74-0.75 193.74 0 178.99 0ZM190.24-16.75L192.24-16.75Q195.74-16.75 197.74-18.95 199.74-21.15 199.74-25.25L199.74-25.25Q199.74-29.35 197.74-31.55 195.74-33.75 192.24-33.75L192.24-33.75 190.24-33.75 190.24-16.75ZM219.74 0L219.74-0.75 222.74-1.5 222.74-33.75 216.99-33.75Q216.99-30.7 215.34-27.9L215.34-27.9Q214.64-26.75 213.74-26L213.74-26 212.24-26 212.24-35 241.49-35 241.49-26 239.99-26Q239.04-26.75 238.34-27.9L238.34-27.9Q236.74-30.6 236.74-33.75L236.74-33.75 230.99-33.75 230.99-1.5 233.99-0.75 233.99 0 219.74 0Z" opacity="1" transform="matrix(1,0,0,1,0,0)" fill="#636365" class="wordmark-text-0" data-fill-palette-color="primary" id="text-0"></path></svg></g></svg></g></svg></g></svg></g><g transform="matrix(1,0,0,1,61.170024797385175,0)"><svg viewBox="0 0 69.65995040522965 69.65995040522965" height="69.65995040522965" width="69.65995040522965"><g><svg></svg></g><g id="icon-0"><svg viewBox="0 0 69.65995040522965 69.65995040522965" height="69.65995040522965" width="69.65995040522965"><g><path d="M0 34.83c0-19.236 15.594-34.83 34.83-34.83 19.236 0 34.83 15.594 34.83 34.83 0 19.236-15.594 34.83-34.83 34.83-19.236 0-34.83-15.594-34.83-34.83zM34.83 67.016c17.776 0 32.186-14.41 32.186-32.186 0-17.776-14.41-32.186-32.186-32.186-17.776 0-32.186 14.41-32.186 32.186 0 17.776 14.41 32.186 32.186 32.186z" data-fill-palette-color="accent" fill="#89939e" stroke="transparent"></path></g><g transform="matrix(1,0,0,1,18.396752047113537,16.266391997723947)"><svg viewBox="0 0 32.866446311002576 37.12716640978176" height="37.12716640978176" width="32.866446311002576"><g><svg xmlns="http://www.w3.org/2000/svg" xmlns:xlink="http://www.w3.org/1999/xlink" version="1.1" x="0" y="0" viewBox="6.890999794006348 1.1219940185546875 85.82400512695312 96.95000457763672" enable-background="new 0 0 100 100" xml:space="preserve" height="37.12716640978176" width="32.866446311002576" class="icon-s-0" data-fill-palette-color="accent" id="s-0"><g fill="#89939e" data-fill-palette-color="accent"><path fill="#89939e" d="M64.008 72.381c4.002-3.149 12.23-11.582 15.089-21.179-6.511-8.01-33.912-42.187-40.238-50.08C38.212 8.613 31.63 24.377 20.21 29.646c-5.247 2.56-10.477 4.156-12.467 4.721l39.077 47.32C51.235 80.263 59.958 75.56 64.008 72.381z" data-fill-palette-color="accent"></path><g fill="#89939e" data-fill-palette-color="accent"><g fill="#89939e" data-fill-palette-color="accent"><path fill="#89939e" d="M90.405 75.352c-6.5 3.781-13.381 7.281-20.674 9.929-8.632 3.134-19.05 6.681-22.386 7.664v5.127l43.046-15.479L90.405 75.352z" data-fill-palette-color="accent"></path><polygon fill="#89939e" points="6.891,35.865 6.891,50.088 45.703,97.945 45.736,82.902    " data-fill-palette-color="accent"></polygon></g><path fill="#89939e" d="M88.717 70.42c-5.018 3.936-11.386 7.921-18.278 11.363-6.521 3.266-20.879 7.668-23.093 8.339v1.144c3.686-1.09 13.036-3.898 21.237-7.013 9.104-3.457 22.12-11.628 22.12-11.628L88.717 70.42z" data-fill-palette-color="accent"></path></g><path fill="#89939e" d="M80.877 50.835l-0.114 0.403c-2.851 10.142-11.25 18.858-15.762 22.409-4.225 3.319-13.009 8.054-17.655 9.561v2.168c6.53-2.034 15.656-6.36 20.721-9.922 8.699-6.128 17.195-14.63 22.419-22.404l0.047 0.036C84.648 46.442 51.938 9.001 49.818 6.309c-0.719 1.357-1.368 2.265-2.422 2.887 10.832 13.508 28.598 35.647 33.217 41.314L80.877 50.835z" data-fill-palette-color="accent"></path><path fill="#89939e" d="M87.321 59.925c0 0-11.588 12.1-18.328 16.846-5.696 4.008-14.5 7.942-21.647 10.168v1.498c0.692-0.212 1.838-0.566 3.268-1.021 5.266-1.677 14.41-4.722 19.106-7.072 9.305-4.648 17.623-10.274 22.834-15.386 0.054-0.053 0.106-0.106 0.161-0.16L87.321 59.925z" data-fill-palette-color="accent"></path></g></svg></g></svg></g></svg></g></svg></g><g></g></svg></g></svg></g></svg></g><defs></defs></svg><rect width="320" height="360" fill="none" stroke="none" visibility="hidden"></rect></g></svg></g></svg>